<?xml version="1.0" standalone="no"?>
<!DOCTYPE svg PUBLIC "-//W3C//DTD SVG 1.1//EN" "http://www.w3.org/Graphics/SVG/1.1/DTD/svg11.dtd" >
<svg xmlns="http://www.w3.org/2000/svg">
<metadata>Generated by IcoMoon</metadata>
<defs>
<font id="dsFont" horiz-adv-x="1024">
<font-face units-per-em="1024" ascent="960" descent="-64" />
<missing-glyph horiz-adv-x="1024" />
<glyph unicode="&#x20;" horiz-adv-x="512" d="" />
<glyph unicode="&#xe600;" glyph-name="huiyuan" d="M512 819.945c-86.456 0-156.539-70.085-156.539-156.543 0-86.456 70.083-156.541 156.539-156.541 86.458 0 156.541 70.085 156.541 156.541 0 86.458-70.083 156.543-156.541 156.543zM512 555.7c-59.462 0-107.7 48.21-107.7 107.702 0 59.498 48.239 107.702 107.7 107.702s107.702-48.206 107.702-107.702c0-59.492-48.241-107.702-107.702-107.702zM1014.612 448c0 277.6-225.010 502.612-502.612 502.612-277.6 0-502.612-225.012-502.612-502.612 0-277.602 225.012-502.612 502.612-502.612 154.554 0 292.78 69.767 384.977 179.503h0.041c-0.002 0.014-0.004 0.029-0.004 0.043 73.378 87.359 117.598 200.038 117.598 323.066zM512-18.713c-141.605 0-268.466 63.078-354.058 162.654 28.639 154.931 194.279 304.058 354.058 304.058 159.744 0 325.417-149.125 354.060-304.058-85.592-99.576-212.453-162.654-354.060-162.654zM889.639 173.761c-37.665 177.334-188.664 310.143-377.639 310.143-190.487 0-341.498-131.396-377.53-310.292-56.072 77.019-89.18 171.831-89.18 274.389 0 257.757 208.953 466.711 466.711 466.711s466.708-208.953 466.708-466.711c0-102.492-33.065-197.247-89.070-274.239z" />
<glyph unicode="&#xe601;" glyph-name="huodong" d="M404.48 627.2c-39.586 0-71.68-32.096-71.68-71.68 0-39.586 32.094-71.68 71.68-71.68s71.68 32.094 71.68 71.68c0 39.584-32.094 71.68-71.68 71.68zM404.48 519.68c-19.81 0-35.84 16.030-35.84 35.84s16.030 35.84 35.84 35.84 35.84-16.030 35.84-35.84-16.030-35.84-35.84-35.84zM512 949.76c-277.129 0-501.76-224.631-501.76-501.76 0-277.131 224.631-501.76 501.76-501.76s501.76 224.629 501.76 501.76c0 277.129-224.631 501.76-501.76 501.76zM512-17.92c-257.321 0-465.92 208.599-465.92 465.92s208.599 465.92 465.92 465.92 465.92-208.599 465.92-465.92-208.599-465.92-465.92-465.92zM583.68 734.72h-358.4v-322.56h0.002l332.866-322.763-0.381-0.373 23.181-21.273 15.401 9.173 260.786 251.513-24.23 29.614-249.176-243.64-322.609 310.417v274.051h292.927l303.088-370.44 26.528 24.080-299.983 382.2z" />
<glyph unicode="&#xe602;" glyph-name="jiantou" d="M768.528 433.48l-474.341-474.339c-8.022-8.022-21.017-8.022-29.039 0l-9.679 9.681c-8.022 8.020-8.022 21.017 0 29.039l450.13 450.14-450.128 450.136c-8.022 8.022-8.022 21.025 0 29.045l9.679 9.681c8.022 8.022 21.017 8.022 29.039 0l474.341-474.341c8.020-8.016 8.020-21.025-0.002-29.041z" />
<glyph unicode="&#xe603;" glyph-name="mima" d="M822.598 707.004h-30.493c-24.261 132.090-139.975 232.182-279.081 232.182s-254.82-100.092-279.085-232.182h-30.491c-56.988 0-103.193-46.207-103.193-103.193v-541.757c0-56.986 46.205-103.195 103.193-103.195h619.149c56.988 0 103.195 46.209 103.195 103.195v541.757c0 56.988-46.205 103.193-103.195 103.193zM545.452 261.419v-119.155c0-18.151-14.717-32.866-32.866-32.866-18.151 0-32.868 14.715-32.868 32.866v118.718c-36.739 13.228-63.013 48.38-63.013 89.676 0 52.63 42.664 95.293 95.293 95.293 52.627 0 95.291-42.664 95.291-95.293 0.004-40.856-25.713-75.692-61.837-89.24zM313.143 707.004c22.913 89.010 103.713 154.788 199.883 154.788 96.16 0 176.966-65.778 199.881-154.788h-399.763z" />
<glyph unicode="&#xe604;" glyph-name="qian" d="M763.9 684.403c0 0-129.956-93.62-257.874-93.62-123.912 0-245.926 93.62-245.926 93.62s135.75-127.357 135.75-254.011c0-125.245-135.75-249.788-135.75-249.788s124.967 94.79 250.423 94.79c126.441 0 253.377-94.79 253.377-94.79s-135.75 126.054-135.75 252.039c0 125.915 135.75 251.761 135.75 251.761zM723.702 644.942c-22.888-19.255-131.541-115.741-131.541-212.298 0-96.514 108.419-193.075 131.467-212.513 2.787-2.257 4.286-3.543 4.286-3.543s-1.546 1.233-4.286 3.543c-21.252 17.185-118.426 91.247-214.794 91.247-88.832 0-176.925-65.444-204.173-87.572-5.386-4.676-8.577-7.217-8.577-7.217s3.035 2.716 8.577 7.217c29.809 25.87 127.175 117.375 127.175 208.839 0 94.12-103.24 188.176-129.649 210.696-3.969 3.207-6.103 5.077-6.103 5.077s2.23-1.774 6.103-5.077c24.125-19.501 116.048-88.543 208.335-88.543 95.916 0 192.199 73.214 213.18 90.145 2.693 2.265 4.215 3.475 4.215 3.475s-1.473-1.264-4.215-3.475zM512 960c-278.256 0-503.8-225.544-503.8-503.8s225.544-503.8 503.8-503.8 503.8 225.544 503.8 503.8-225.544 503.8-503.8 503.8zM512-11.616c-258.365 0-467.814 209.451-467.814 467.816 0 258.367 209.449 467.814 467.814 467.814s467.816-209.449 467.816-467.814c0-258.365-209.451-467.816-467.816-467.816z" />
<glyph unicode="&#xe605;" glyph-name="cool" d="M512-64c282.784 0 512 229.216 512 512s-229.216 512-512 512-512-229.216-512-512 229.216-512 512-512zM512 864c229.76 0 416-186.24 416-416s-186.24-416-416-416-416 186.24-416 416 186.24 416 416 416zM800 704c17.6 0 32-14.4 32-32v-96c0-35.2-28.8-64-64-64h-128c-35.2 0-64 28.8-64 64h-128c0-35.2-28.8-64-64-64h-128c-35.2 0-64 28.8-64 64v96c0 17.6 14.4 32 32 32h192c17.6 0 32-14.4 32-32v-32h128v32c0 17.6 14.4 32 32 32h192zM512 192c93.216 0 174.784 49.824 219.552 124.288l54.88-32.928c-55.968-93.056-157.92-155.36-274.432-155.36-48.448 0-94.4 10.784-135.552 30.080l33.152 55.264c31.36-13.728 65.952-21.376 102.368-21.376z" />
<glyph unicode="&#xe606;" glyph-name="loading1" d="M1024 448c-1.28 66.848-15.776 133.504-42.592 194.464-26.688 60.992-65.472 116.256-113.056 161.92-47.552 45.696-103.936 81.824-164.992 105.664-60.992 23.936-126.592 35.36-191.392 33.952-64.8-1.28-129.344-15.36-188.32-41.344-59.040-25.888-112.544-63.456-156.736-109.568s-79.168-100.704-102.176-159.808c-23.104-59.072-34.144-122.528-32.736-185.28 1.28-62.752 14.976-125.152 40.128-182.208 25.088-57.088 61.472-108.832 106.112-151.552 44.608-42.752 97.472-76.512 154.624-98.72 57.12-22.304 118.432-32.896 179.136-31.52 60.704 1.28 120.96 14.56 176.064 38.912 55.136 24.288 105.12 59.488 146.368 102.656 41.28 43.136 73.856 94.24 95.264 149.44 13.024 33.472 21.888 68.384 26.528 103.808 1.248-0.064 2.496-0.128 3.776-0.128 35.36 0 64 28.64 64 64 0 1.792-0.096 3.584-0.224 5.344h0.224zM922.304 278.048c-23.456-53.216-57.472-101.408-99.168-141.184s-91.008-71.2-144.256-91.776c-53.216-20.672-110.304-30.464-166.88-29.088-56.608 1.312-112.608 13.728-163.808 36.48-51.264 22.656-97.696 55.488-136 95.712s-68.512 87.776-88.32 139.072c-19.872 51.296-29.216 106.208-27.872 160.768 1.312 54.56 13.344 108.416 35.264 157.696 21.856 49.312 53.504 93.984 92.256 130.816s84.544 65.856 133.888 84.864c49.344 19.072 102.144 28 154.624 26.656 52.512-1.312 104.224-12.928 151.552-34.048 47.36-21.056 90.24-51.488 125.632-88.768s63.2-81.28 81.376-128.672c18.24-47.392 26.784-98.048 25.408-148.512h0.224c-0.16-1.76-0.224-3.52-0.224-5.344 0-33.024 24.992-60.16 57.088-63.616-6.24-34.816-16.544-68.832-30.784-100.992z" />
<glyph unicode="&#xe607;" glyph-name="loading2" d="M384 832c0 70.688 57.312 128 128 128s128-57.312 128-128c0-70.688-57.312-128-128-128s-128 57.312-128 128zM791.008 448c0 0 0 0 0 0 0 57.984 47.008 104.992 104.992 104.992s104.992-47.008 104.992-104.992c0 0 0 0 0 0 0-57.984-47.008-104.992-104.992-104.992s-104.992 47.008-104.992 104.992zM688.416 176.48c0 52.512 42.592 95.104 95.104 95.104s95.104-42.592 95.104-95.104c0-52.512-42.592-95.104-95.104-95.104s-95.104 42.592-95.104 95.104zM425.856 64c0 47.584 38.56 86.144 86.144 86.144s86.144-38.56 86.144-86.144c0-47.584-38.56-86.144-86.144-86.144s-86.144 38.56-86.144 86.144zM162.464 176.48c0 43.072 34.944 78.016 78.016 78.016s78.016-34.944 78.016-78.016c0-43.072-34.944-78.016-78.016-78.016s-78.016 34.944-78.016 78.016zM57.344 448c0 39.040 31.648 70.656 70.656 70.656s70.656-31.648 70.656-70.656c0-39.040-31.648-70.656-70.656-70.656s-70.656 31.648-70.656 70.656zM176.48 719.52c0 0 0 0 0 0 0 35.36 28.64 64 64 64s64-28.64 64-64c0 0 0 0 0 0 0-35.36-28.64-64-64-64s-64 28.64-64 64zM899.456 719.52c0-64.032-51.904-115.936-115.936-115.936s-115.936 51.904-115.936 115.936c0 64.032 51.904 115.936 115.936 115.936s115.936-51.904 115.936-115.936z" />
<glyph unicode="&#xe608;" glyph-name="loading3" d="M512-64c-136.768 0-265.344 53.248-362.048 149.952s-149.952 225.28-149.952 362.048c0 96.832 27.168 191.136 78.592 272.704 50.016 79.296 120.672 143.36 204.352 185.312l43.008-85.824c-68.032-34.080-125.504-86.176-166.144-150.656-41.76-66.208-63.808-142.784-63.808-221.504 0-229.376 186.624-416 416-416s416 186.624 416 416c0 78.688-22.080 155.296-63.808 221.504-40.672 64.48-98.112 116.576-166.144 150.656l43.008 85.824c83.68-41.92 154.368-106.016 204.352-185.312 51.424-81.568 78.592-175.84 78.592-272.704 0-136.768-53.248-265.344-149.952-362.048s-225.28-149.952-362.048-149.952z" />
<glyph unicode="&#xe609;" glyph-name="loading4" d="M512 960c-278.752 0-505.472-222.752-511.84-499.968 5.92 241.856 189.824 435.968 415.84 435.968 229.76 0 416-200.576 416-448 0-53.024 42.976-96 96-96s96 42.976 96 96c0 282.784-229.216 512-512 512zM512-64c278.752 0 505.472 222.752 511.84 499.968-5.92-241.856-189.824-435.968-415.84-435.968-229.76 0-416 200.576-416 448 0 53.024-42.976 96-96 96s-96-42.976-96-96c0-282.784 229.216-512 512-512z" />
<glyph unicode="&#xe60a;" glyph-name="loading5" d="M0.032 446.368h-0.032c0 0 0-0.096 0.032-0.224 0.096-3.872 0.544-7.68 1.312-11.36 0.192-1.76 0.416-3.648 0.672-5.76 0.224-1.888 0.448-3.904 0.704-6.080 0.384-2.56 0.768-5.28 1.184-8.192 0.864-5.76 1.792-12.128 2.912-18.944 1.344-6.432 2.816-13.408 4.352-20.864 0.704-3.712 1.76-7.52 2.784-11.392s2.080-7.904 3.168-12c0.576-2.048 1.024-4.128 1.696-6.208s1.312-4.192 1.984-6.304 2.72-8.576 4.128-12.992c0.352-1.12 0.704-2.208 1.056-3.328 0.416-1.088 0.8-2.208 1.216-3.328 0.832-2.208 1.664-4.448 2.496-6.72 1.696-4.48 3.424-9.088 5.184-13.728 1.952-4.576 3.968-9.216 6.016-13.92 1.024-2.336 2.048-4.704 3.072-7.104s2.272-4.704 3.424-7.072c2.336-4.704 4.672-9.504 7.072-14.336 2.464-4.8 5.216-9.504 7.84-14.336 1.344-2.4 2.688-4.8 4.032-7.232s2.912-4.736 4.352-7.136c2.944-4.736 5.92-9.536 8.928-14.336 12.64-18.88 26.688-37.568 42.208-55.264 15.712-17.568 32.736-34.24 50.688-49.6 18.176-15.136 37.28-28.896 56.736-41.12 19.616-12.032 39.648-22.304 59.392-31.136 4.992-2.048 9.952-4.064 14.88-6.080 2.464-0.96 4.864-2.048 7.328-2.912s4.928-1.728 7.36-2.592 9.664-3.456 14.496-4.992c4.832-1.44 9.6-2.848 14.304-4.256 2.368-0.672 4.672-1.44 7.008-2.016s4.672-1.152 6.976-1.696c4.608-1.12 9.152-2.208 13.6-3.296 4.512-0.864 8.928-1.728 13.28-2.56 2.176-0.416 4.32-0.832 6.432-1.216 1.056-0.192 2.112-0.384 3.168-0.608 1.056-0.16 2.112-0.288 3.168-0.448 4.192-0.576 8.288-1.152 12.288-1.696 1.984-0.288 3.968-0.544 5.92-0.832s3.904-0.384 5.824-0.576c3.808-0.352 7.552-0.672 11.168-0.992s7.104-0.672 10.528-0.736c0.224 0 0.448 0 0.672-0.032 0.608-34.816 28.992-62.848 63.968-62.848 0.544 0 1.088 0.032 1.632 0.032v-0.032c0 0 0.096 0 0.224 0.032 3.872 0.096 7.68 0.544 11.36 1.312 1.76 0.192 3.648 0.416 5.76 0.672 1.888 0.224 3.904 0.448 6.080 0.704 2.56 0.384 5.28 0.768 8.192 1.184 5.76 0.864 12.128 1.792 18.944 2.912 6.432 1.344 13.408 2.816 20.864 4.352 3.712 0.704 7.52 1.792 11.392 2.784s7.904 2.080 12 3.168c2.048 0.576 4.128 1.024 6.208 1.696s4.16 1.312 6.304 1.984 8.576 2.72 12.992 4.128c1.12 0.352 2.208 0.704 3.328 1.056 1.088 0.416 2.208 0.8 3.328 1.216 2.208 0.832 4.448 1.664 6.72 2.496 4.48 1.696 9.088 3.424 13.728 5.184 4.576 1.952 9.216 3.968 13.952 6.016 2.336 1.024 4.704 2.048 7.104 3.072s4.704 2.272 7.072 3.424c4.704 2.336 9.504 4.672 14.336 7.072 4.8 2.464 9.504 5.216 14.336 7.84 2.4 1.344 4.8 2.688 7.232 4.032s4.736 2.912 7.136 4.352c4.736 2.944 9.536 5.92 14.336 8.928 18.88 12.64 37.568 26.688 55.264 42.208 17.568 15.712 34.24 32.736 49.6 50.688 15.136 18.176 28.896 37.28 41.12 56.736 12.032 19.616 22.304 39.648 31.136 59.36 2.048 4.992 4.064 9.952 6.080 14.88 0.96 2.464 2.048 4.864 2.912 7.328s1.728 4.928 2.592 7.36 3.456 9.664 4.992 14.496c1.44 4.832 2.848 9.6 4.256 14.304 0.672 2.368 1.44 4.672 2.016 7.008s1.152 4.672 1.696 6.976c1.12 4.608 2.208 9.152 3.296 13.6 0.864 4.512 1.728 8.928 2.56 13.28 0.416 2.176 0.832 4.32 1.216 6.432 0.192 1.056 0.384 2.112 0.608 3.168 0.16 1.056 0.288 2.112 0.448 3.168 0.576 4.192 1.152 8.288 1.696 12.288 0.288 1.984 0.544 3.968 0.832 5.92s0.384 3.904 0.576 5.824c0.352 3.808 0.672 7.552 0.992 11.168s0.672 7.104 0.736 10.528c0.032 0.544 0.032 1.056 0.064 1.568 35.232 0.16 63.744 28.736 63.744 64 0 0.544-0.032 1.088-0.032 1.632h0.032c0 0 0 0.096-0.032 0.224-0.096 3.872-0.544 7.68-1.312 11.36-0.192 1.76-0.416 3.648-0.672 5.792-0.224 1.888-0.448 3.904-0.704 6.080-0.384 2.56-0.768 5.28-1.184 8.16-0.864 5.76-1.792 12.128-2.912 18.944-1.344 6.432-2.816 13.408-4.352 20.864-0.704 3.712-1.76 7.52-2.784 11.424s-2.080 7.904-3.168 12c-0.576 2.048-1.024 4.128-1.696 6.208s-1.312 4.16-1.984 6.304-2.72 8.576-4.128 12.992c-0.352 1.088-0.704 2.208-1.056 3.328-0.416 1.088-0.8 2.208-1.216 3.328-0.832 2.208-1.664 4.448-2.496 6.72-1.696 4.512-3.424 9.088-5.184 13.728-1.952 4.576-3.968 9.216-6.016 13.92-1.024 2.336-2.048 4.704-3.072 7.104s-2.272 4.704-3.424 7.072c-2.336 4.704-4.672 9.504-7.072 14.336-2.464 4.8-5.216 9.504-7.84 14.336-1.344 2.4-2.688 4.8-4.032 7.232s-2.912 4.736-4.352 7.136c-2.944 4.736-5.92 9.536-8.928 14.336-12.64 18.88-26.688 37.568-42.208 55.264-15.712 17.568-32.736 34.24-50.688 49.6-18.176 15.136-37.28 28.896-56.736 41.12-19.616 12.032-39.648 22.304-59.36 31.136-4.992 2.048-9.952 4.064-14.88 6.080-2.464 0.96-4.864 2.016-7.328 2.912s-4.928 1.728-7.36 2.592-9.664 3.456-14.496 4.992c-4.832 1.44-9.6 2.848-14.304 4.256-2.368 0.672-4.672 1.44-7.008 2.016s-4.672 1.152-6.976 1.696c-4.608 1.12-9.152 2.208-13.6 3.296-4.512 0.864-8.928 1.728-13.28 2.56-2.176 0.416-4.32 0.832-6.432 1.216-1.056 0.192-2.112 0.384-3.168 0.608-1.056 0.16-2.112 0.288-3.168 0.448-4.192 0.576-8.288 1.152-12.288 1.696-1.984 0.288-3.968 0.544-5.92 0.832s-3.904 0.384-5.824 0.576c-3.808 0.32-7.552 0.672-11.168 0.992s-7.104 0.672-10.528 0.736c-0.864 0.032-1.664 0.064-2.496 0.096-0.64 34.784-29.024 62.784-63.968 62.784-0.544 0-1.088-0.032-1.632-0.032v0.032c0 0-0.096 0-0.224-0.032-3.872-0.096-7.68-0.544-11.36-1.312-1.76-0.192-3.648-0.416-5.792-0.672-1.888-0.224-3.904-0.448-6.080-0.704-2.56-0.384-5.28-0.768-8.16-1.184-5.76-0.864-12.128-1.792-18.944-2.912-6.432-1.344-13.408-2.816-20.864-4.352-3.712-0.704-7.52-1.792-11.392-2.784s-7.904-2.080-12-3.168c-2.048-0.576-4.128-1.024-6.208-1.696s-4.16-1.312-6.304-1.984-8.576-2.72-12.992-4.128c-1.088-0.352-2.208-0.704-3.328-1.056-1.088-0.416-2.208-0.8-3.328-1.216-2.208-0.832-4.448-1.664-6.72-2.496-4.48-1.696-9.088-3.424-13.728-5.184-4.576-1.952-9.216-3.968-13.92-6.016-2.336-1.024-4.704-2.048-7.104-3.072s-4.704-2.272-7.072-3.424c-4.704-2.336-9.504-4.672-14.336-7.072-4.8-2.464-9.504-5.216-14.336-7.84-2.4-1.344-4.8-2.688-7.232-4.032s-4.736-2.912-7.136-4.352c-4.736-2.944-9.536-5.92-14.336-8.928-18.88-12.64-37.568-26.688-55.264-42.208-17.568-15.712-34.24-32.736-49.6-50.688-15.136-18.176-28.896-37.28-41.12-56.736-12.032-19.616-22.304-39.648-31.136-59.36-2.048-4.992-4.064-9.952-6.080-14.88-0.96-2.464-2.016-4.864-2.912-7.328s-1.728-4.928-2.592-7.36-3.456-9.664-4.992-14.496c-1.44-4.832-2.848-9.6-4.224-14.304-0.672-2.368-1.44-4.672-2.016-7.008s-1.152-4.672-1.696-6.976c-1.12-4.608-2.208-9.152-3.296-13.6-0.864-4.512-1.728-8.928-2.56-13.28-0.416-2.176-0.832-4.32-1.216-6.432-0.192-1.056-0.384-2.112-0.608-3.168-0.16-1.056-0.288-2.112-0.448-3.168-0.576-4.192-1.152-8.288-1.696-12.288-0.288-1.984-0.544-3.968-0.832-5.92s-0.384-3.904-0.576-5.824c-0.32-3.808-0.672-7.552-0.992-11.168s-0.672-7.104-0.736-10.528c-0.032-0.544-0.032-1.088-0.064-1.632-34.368-1.12-61.888-29.312-61.888-63.936 0-0.544 0.032-1.088 0.032-1.632zM73.504 511.296c0.032 0.192 0.096 0.384 0.128 0.576 0.64 3.232 1.632 6.528 2.56 9.952s1.888 6.88 2.88 10.464c0.512 1.792 0.928 3.616 1.536 5.408s1.216 3.616 1.824 5.472 2.464 7.456 3.744 11.296c0.32 0.96 0.64 1.92 0.96 2.88 0.384 0.96 0.736 1.92 1.12 2.88 0.736 1.92 1.504 3.872 2.272 5.824 1.504 3.904 3.072 7.872 4.64 11.936 1.76 3.968 3.552 8 5.376 12.064 0.896 2.048 1.824 4.096 2.752 6.144s2.048 4.064 3.040 6.112c2.080 4.096 4.16 8.224 6.304 12.416 2.208 4.128 4.64 8.224 7.008 12.384 1.184 2.080 2.368 4.16 3.584 6.24s2.592 4.096 3.872 6.176c2.624 4.096 5.248 8.224 7.904 12.416 11.232 16.288 23.648 32.384 37.344 47.648 13.888 15.104 28.832 29.408 44.608 42.56 15.968 12.928 32.672 24.64 49.664 35.008 17.12 10.208 34.592 18.848 51.744 26.272 4.352 1.696 8.672 3.392 12.928 5.056 2.144 0.8 4.224 1.696 6.368 2.432s4.288 1.44 6.4 2.144 8.384 2.88 12.544 4.128c4.192 1.184 8.32 2.336 12.384 3.488 2.048 0.544 4.032 1.184 6.048 1.664s4.032 0.928 6.048 1.376c3.968 0.896 7.904 1.792 11.744 2.688 3.872 0.672 7.712 1.376 11.456 2.016 1.856 0.32 3.712 0.672 5.536 0.992 0.928 0.16 1.824 0.32 2.72 0.48 0.928 0.096 1.824 0.224 2.72 0.32 3.616 0.448 7.136 0.896 10.592 1.312 1.728 0.224 3.424 0.416 5.088 0.64s3.36 0.256 5.024 0.416c3.296 0.224 6.496 0.48 9.6 0.704s6.112 0.512 9.056 0.512c5.856 0.128 11.328 0.256 16.384 0.384 4.672-0.16 8.96-0.32 12.832-0.448 1.92-0.064 3.712-0.096 5.44-0.16 2.112-0.128 4.096-0.256 5.952-0.384 2.144-0.128 4.064-0.256 5.824-0.384 3.264-0.512 6.592-0.768 9.984-0.768 0.48 0 0.928 0.032 1.408 0.032 0.128 0 0.224 0 0.224 0v0.032c31.136 0.768 56.736 23.776 61.568 53.76 0.544-0.128 1.056-0.224 1.6-0.352 3.232-0.64 6.528-1.632 9.952-2.56s6.88-1.888 10.464-2.88c1.792-0.512 3.616-0.928 5.408-1.536s3.616-1.216 5.472-1.824 7.456-2.464 11.296-3.744c0.96-0.32 1.92-0.64 2.88-0.96 0.96-0.384 1.92-0.736 2.88-1.12 1.92-0.736 3.872-1.504 5.824-2.272 3.904-1.504 7.872-3.072 11.936-4.64 3.968-1.76 8-3.552 12.096-5.376 2.048-0.896 4.096-1.824 6.144-2.752s4.064-2.048 6.112-3.040c4.096-2.080 8.224-4.16 12.416-6.304 4.16-2.208 8.224-4.64 12.384-7.008 2.080-1.184 4.16-2.368 6.24-3.584s4.096-2.592 6.176-3.872c4.096-2.624 8.224-5.248 12.416-7.904 16.288-11.232 32.384-23.648 47.648-37.344 15.104-13.888 29.408-28.832 42.56-44.608 12.928-15.968 24.64-32.672 35.008-49.664 10.208-17.12 18.848-34.592 26.272-51.744 1.696-4.352 3.392-8.672 5.056-12.928 0.8-2.144 1.696-4.224 2.432-6.368s1.44-4.288 2.144-6.4 2.88-8.384 4.128-12.544c1.184-4.192 2.336-8.32 3.488-12.384 0.544-2.048 1.184-4.032 1.664-6.048s0.928-4.032 1.376-6.048c0.896-3.968 1.792-7.904 2.688-11.744 0.672-3.872 1.376-7.712 2.016-11.456 0.32-1.856 0.64-3.712 0.992-5.536 0.16-0.928 0.32-1.824 0.48-2.72 0.096-0.928 0.224-1.824 0.32-2.72 0.448-3.616 0.896-7.136 1.312-10.592 0.224-1.728 0.448-3.424 0.64-5.088s0.256-3.36 0.416-5.024c0.224-3.296 0.48-6.496 0.704-9.6s0.512-6.112 0.512-9.056c0.128-5.856 0.256-11.328 0.384-16.384-0.16-4.672-0.32-8.96-0.448-12.832-0.064-1.92-0.096-3.712-0.16-5.44-0.128-2.112-0.256-4.096-0.384-5.952-0.128-2.144-0.256-4.064-0.384-5.824-0.512-3.264-0.768-6.592-0.768-9.984 0-0.48 0.032-0.928 0.032-1.408 0-0.128 0-0.224 0-0.224h0.032c0.768-30.752 23.232-56.128 52.672-61.376-0.064-0.288-0.128-0.576-0.192-0.896-0.64-3.264-1.632-6.528-2.56-9.952s-1.888-6.88-2.88-10.464c-0.512-1.792-0.928-3.616-1.536-5.408s-1.216-3.616-1.824-5.472-2.464-7.456-3.744-11.296c-0.32-0.96-0.64-1.92-0.96-2.88-0.384-0.96-0.736-1.92-1.12-2.88-0.736-1.92-1.504-3.872-2.272-5.824-1.504-3.904-3.072-7.872-4.64-11.936-1.76-3.968-3.552-8-5.408-12.096-0.896-2.048-1.824-4.096-2.752-6.144s-2.048-4.064-3.040-6.112c-2.080-4.096-4.16-8.224-6.304-12.416-2.208-4.128-4.64-8.224-7.008-12.384-1.184-2.080-2.368-4.16-3.584-6.24s-2.592-4.096-3.872-6.176c-2.624-4.096-5.248-8.224-7.904-12.416-11.232-16.288-23.616-32.384-37.344-47.648-13.888-15.104-28.832-29.408-44.608-42.56-15.968-12.928-32.672-24.64-49.664-35.008-17.12-10.208-34.592-18.848-51.744-26.272-4.352-1.696-8.672-3.392-12.928-5.056-2.144-0.8-4.224-1.696-6.368-2.432s-4.288-1.44-6.4-2.144-8.384-2.88-12.544-4.128c-4.192-1.184-8.32-2.336-12.384-3.488-2.048-0.544-4.032-1.184-6.048-1.664s-4.032-0.928-6.048-1.376c-3.968-0.896-7.904-1.792-11.744-2.688-3.904-0.672-7.712-1.376-11.456-2.016-1.856-0.32-3.712-0.672-5.536-0.992-0.928-0.16-1.824-0.32-2.72-0.48-0.928-0.096-1.824-0.224-2.72-0.32-3.616-0.448-7.136-0.896-10.592-1.312-1.728-0.224-3.424-0.448-5.088-0.64s-3.36-0.256-5.024-0.416c-3.296-0.224-6.496-0.48-9.6-0.704s-6.112-0.512-9.056-0.512c-5.856-0.128-11.328-0.256-16.384-0.384-4.672 0.16-8.96 0.32-12.832 0.448-1.92 0.064-3.712 0.096-5.44 0.16-2.112 0.128-4.096 0.256-5.952 0.384-2.144 0.128-4.064 0.256-5.824 0.384-3.264 0.512-6.592 0.768-9.984 0.768-0.48 0-0.928-0.032-1.408-0.032-0.128 0-0.224 0-0.224 0v-0.032c-31.008-0.768-56.512-23.584-61.472-53.376-3.2 0.64-6.432 1.6-9.792 2.528-3.392 0.928-6.88 1.888-10.464 2.88-1.792 0.512-3.616 0.928-5.408 1.536s-3.616 1.216-5.472 1.824-7.456 2.464-11.296 3.744c-0.96 0.32-1.92 0.64-2.88 0.96-0.96 0.384-1.92 0.736-2.88 1.12-1.92 0.736-3.872 1.504-5.824 2.272-3.904 1.536-7.872 3.072-11.936 4.64-3.968 1.76-8 3.552-12.064 5.376-2.048 0.896-4.096 1.824-6.144 2.752s-4.064 2.048-6.112 3.040c-4.096 2.080-8.224 4.16-12.416 6.304-4.16 2.208-8.224 4.64-12.384 7.008-2.080 1.184-4.16 2.368-6.24 3.584s-4.096 2.592-6.176 3.872c-4.096 2.624-8.224 5.248-12.416 7.904-16.288 11.232-32.384 23.616-47.648 37.312-15.104 13.888-29.408 28.832-42.56 44.608-12.928 15.968-24.64 32.672-35.008 49.664-10.208 17.12-18.848 34.592-26.272 51.744-1.696 4.352-3.392 8.672-5.056 12.928-0.8 2.144-1.696 4.224-2.432 6.368s-1.44 4.288-2.144 6.4-2.88 8.384-4.128 12.544c-1.184 4.192-2.336 8.32-3.488 12.384-0.544 2.048-1.184 4.032-1.664 6.048s-0.928 4.032-1.376 6.048c-0.896 3.968-1.792 7.904-2.688 11.744-0.672 3.872-1.376 7.712-2.016 11.456-0.32 1.856-0.672 3.712-0.992 5.536-0.16 0.928-0.32 1.824-0.48 2.72-0.096 0.928-0.224 1.824-0.32 2.72-0.448 3.616-0.896 7.136-1.312 10.592-0.224 1.728-0.416 3.424-0.64 5.088s-0.256 3.36-0.416 5.024c-0.224 3.296-0.48 6.496-0.704 9.6s-0.512 6.112-0.512 9.056c-0.128 5.856-0.256 11.328-0.384 16.384 0.16 4.672 0.32 8.96 0.448 12.832 0.064 1.92 0.096 3.712 0.16 5.44 0.128 2.112 0.256 4.096 0.384 5.952 0.128 2.144 0.256 4.064 0.384 5.824 0.48 3.264 0.768 6.592 0.768 9.984 0 0.48-0.032 0.928-0.032 1.408 0 0.128 0.032 0.224 0.032 0.224h-0.032c-0.768 31.392-24.128 57.152-54.432 61.664z" />
<glyph unicode="&#xe60b;" glyph-name="heart" d="M755.2 896c-107.616 0-200.256-87.552-243.168-179.008-42.944 91.456-135.584 179.008-243.232 179.008-148.384 0-268.8-120.448-268.8-268.832 0-301.856 304.512-380.992 512.032-679.424 196.16 296.576 511.968 387.2 511.968 679.424 0 148.384-120.416 268.832-268.8 268.832z" />
<glyph unicode="&#xe60c;" glyph-name="coin-yen" d="M480 896c-265.088 0-480-214.912-480-480s214.912-480 480-480c265.088 0 480 214.912 480 480s-214.912 480-480 480zM480 32c-212.064 0-384 171.936-384 384s171.936 384 384 384c212.064 0 384-171.936 384-384s-171.936-384-384-384zM608 384c17.664 0 32 14.336 32 32s-14.336 32-32 32h-68.192l94.816 142.24c9.792 14.72 5.824 34.56-8.864 44.384s-34.56 5.824-44.384-8.864l-101.376-152.064-101.376 152.064c-9.792 14.72-29.664 18.688-44.384 8.864s-18.688-29.664-8.864-44.384l94.848-142.24h-68.224c-17.664 0-32-14.336-32-32s14.336-32 32-32h96v-64h-96c-17.664 0-32-14.336-32-32s14.336-32 32-32h96v-96c0-17.664 14.336-32 32-32s32 14.336 32 32v96h96c17.664 0 32 14.336 32 32s-14.336 32-32 32h-96v64h96z" />
<glyph unicode="&#xe60d;" glyph-name="wenzhang" d="M769.002 594.49c0-26.964-20.596-48.824-46.002-48.824v0c-25.404 0-46 21.86-46 48.824v288.686c0 26.964 20.596 48.824 46 48.824v0c25.406 0 46.002-21.86 46.002-48.824v-288.686zM856.746 960h-689.492c-38.66 0-70-31.34-70-70v-880c0-38.66 31.34-70 70-70h530v79h-476.598c-32.67 0-59.156 26.484-59.156 59.158v743.686c0 32.67 26.486 59.156 59.156 59.156h582.688c32.672 0 59.158-26.486 59.158-59.156v-742.844h0.164v-138.718c35.884 3.010 64.080 33.056 64.080 69.718v880c0 38.66-31.34 70-70 70z" />
<glyph unicode="&#xe60e;" glyph-name="hy" d="M524 953c-156.296 0-283-126.704-283-283s126.704-283 283-283 283 126.704 283 283-126.704 283-283 283zM524 455.878c-117.682 0-213.084 95.402-213.084 213.084 0 117.684 95.402 213.086 213.084 213.086 117.684 0 213.086-95.402 213.086-213.086 0-117.682-95.402-213.084-213.086-213.084zM640.782 404.32c-41.154 10.642-84.298 16.338-128.782 16.338-271.892 0-494.34-211.53-511.85-478.992h81.174c17.344 223.242 203.982 398.992 431.676 398.992 30.276 0 59.816-3.136 88.34-9.050l39.442 72.712zM841.352 300.924l-38.734-71.41c80.132-72.158 133.198-173.796 142.058-287.848h79.174c-9.436 144.114-78.392 271.962-182.498 359.258z" />
<glyph unicode="&#xe60f;" glyph-name="guanyuwomen" d="M732.368 50.59l-14.89-58.044c-44.51-16.76-80.066-29.556-106.568-38.334s-57.306-13.134-92.356-13.134c-53.964 0-95.866 12.516-125.764 37.654-29.954 25.088-44.904 57.078-44.904 95.696 0 15.062 1.132 30.464 3.342 46.148 2.32 15.63 5.946 33.412 10.814 53.174l55.718 188.222c4.984 18.062 9.174 35.164 12.516 51.302 3.34 16.024 5.040 30.802 5.040 44.166 0 24.008-5.154 40.772-15.572 50.224-10.304 9.458-30.18 14.214-59.514 14.214-14.324 0-29.16-2.152-44.28-6.512-15.12-4.246-28.030-8.324-38.844-12.23l14.834 58.042c36.466 14.212 71.348 26.332 104.642 36.412 33.296 10.080 64.836 15.176 94.564 15.176 53.51 0 94.85-12.346 123.838-37.090 29.106-24.688 43.546-56.796 43.546-96.376 0-8.152-0.962-22.592-3.002-43.204s-5.776-39.47-11.1-56.682l-55.492-187.544c-4.472-15.118-8.55-32.274-12.176-51.698-3.568-19.31-5.378-33.92-5.378-43.826 0-24.914 5.78-41.852 17.446-50.91 11.718-9.002 31.874-13.532 60.7-13.532 13.418 0 28.652 2.208 45.696 6.796 17.1 4.472 29.444 8.432 37.144 11.89zM746.468 837.792c0-32.674-12.966-60.534-38.792-83.578-25.816-22.934-56.96-34.43-93.372-34.43-36.408 0-67.668 11.496-93.714 34.43-26.104 23.044-39.186 50.904-39.186 83.578 0 32.672 13.082 60.532 39.186 83.806 26.046 23.158 57.306 34.766 93.714 34.766 36.41 0 67.554-11.608 93.372-34.766 25.826-23.274 38.792-51.134 38.792-83.806z" />
<glyph unicode="&#xe610;" glyph-name="chongzhi" d="M522.858 184.93c0.378-0.046 0.758-0.096 1.142-0.096 8.446 0 15 10.996 15 39.912v654.552c0 28.922-6.554 40.036-15 40.036s-15.59-11.114-15.59-40.036v-646.96l-364.17 364.162c-22.488 19.666-30.488 21.904-36.738 16.154-9.918-9.126 0.626-23.064 21.082-43.506l366.676-366.69c13.464-13.464 21.206-18.382 27.598-17.528zM681.118 333.112l183.404 183.414c20.452 20.442 20.478 31.292 12.478 38.474-3.8 3.412-9.846 8.988-30.3-11.464l-183.426-183.418c-20.43-20.442-22.834-28.618-15.274-38.118 6.522-8.196 12.66-9.346 33.118 11.112zM871.492 212.12c-7.878 0-14.26-6.036-14.26-13.48 0-0.024 0.004-0.046 0.004-0.072l-0.182-168.518c-1.792-36.426 13.014-69.232-42.89-63.232h-609.508c-39.246 0.334-37.088 40.364-39.42 127.096v104.726c0 6.838-6.304 12.38-14.084 12.38-7.776 0-14.082-5.542-14.082-12.38l1.208-170.4c0-72.306 7.138-91.422 67.63-91.422h613.316c60.494 0 66.006 28.392 66.006 100.7l0.518 161.124c0.002 7.442-6.382 13.478-14.256 13.478z" />
<glyph unicode="&#xe611;" glyph-name="coin-yen2" d="M480 896c-265.088 0-480-214.912-480-480s214.912-480 480-480 480 214.912 480 480-214.912 480-480 480zM480-30c-246.304 0-446 199.698-446 446 0 246.304 199.696 446 446 446 246.302 0 446-199.696 446-446 0-246.302-199.698-446-446-446zM608 384c17.664 0 32 14.336 32 32s-14.336 32-32 32h-68.192l94.816 142.24c9.792 14.72 5.824 34.56-8.866 44.384-14.688 9.824-34.56 5.824-44.384-8.866l-101.374-152.062-101.376 152.064c-9.792 14.72-29.664 18.69-44.384 8.866s-18.688-29.664-8.864-44.384l94.846-142.242h-68.222c-17.664 0-32-14.336-32-32s14.336-32 32-32h96v-64h-96c-17.664 0-32-14.336-32-32s14.336-32 32-32h96v-96c0-17.664 14.336-32 32-32s32 14.336 32 32v96h96c17.664 0 32 14.336 32 32s-14.336 32-32 32h-96v64h96z" />
<glyph unicode="&#xe612;" glyph-name="tixian" d="M881.64 487.718l-367.284 366.080c-13.492 13.444-21.242 18.348-27.632 17.484-0.378 0.044-0.756 0.094-1.14 0.092-8.446-0.014-14.982-11.022-14.934-39.938l1.090-654.552c0.046-28.922 6.622-40.024 15.066-40.008 8.446 0.014 15.57 11.136 15.524 40.060l-1.078 646.96 364.778-363.556c22.522-19.63 30.526-21.854 36.766-16.094 9.902 9.142-0.668 23.066-21.156 43.472zM133.2 500.622c3.806-3.404 9.86-8.97 30.282 11.516l183.122 183.724c20.394 20.474 22.786 28.656 15.21 38.142-6.536 8.184-12.676 9.324-33.098-11.166l-183.1-183.718c-20.418-20.48-20.428-31.328-12.416-38.498zM862.672 215.302c-7.878 0-14.26-6.036-14.26-13.48 0-0.024 0.004-0.046 0.004-0.072l-0.182-168.518c-1.792-36.426 13.014-69.232-42.89-63.232h-609.508c-39.246 0.334-37.090 40.364-39.422 127.096v104.726c0 6.838-6.304 12.38-14.082 12.38s-14.082-5.542-14.082-12.38l1.208-170.4c0-72.306 7.138-91.422 67.63-91.422h613.316c60.494 0 66.006 28.392 66.006 100.7l0.518 161.124c0.002 7.444-6.384 13.478-14.256 13.478z" />
<glyph unicode="&#xe613;" glyph-name="wodelicai" d="M831.878 496.71c46.854-79.276 75.31-171.884 75.31-260.902 0-119.624-46.84-195.304-122.152-241.424-70.988-43.616-166.842-58.384-272.070-58.384-104.858 0-200.714 14.768-272.058 58.384-75.326 46.12-121.798 121.8-121.798 241.424 0 89.018 28.458 181.626 74.946 260.902 39.648 67.758 104.070 142.812 164.262 182.084-4.324 6.492-8.662 13.338-12.986 20.538-24.868 43.612-50.73 71.608-53.612 109.082-3.25 46.126 10.074 83.614 41.428 101.616 21.264 12.264 45.766 12.978 71.722 3.962 9-2.882 18.016-7.198 27.016-12.61 5.044 9.014 10.81 17.308 16.942 24.508 18.016 20.544 39.988 32.442 64.136 32.442 24.516 0 46.488-11.896 64.136-32.442 6.498-7.2 11.896-15.494 17.306-24.508 9.002 5.412 18.018 9.728 27.018 12.61 25.588 9.016 50.458 8.302 71.708-3.962 31.354-18.002 44.692-55.488 41.444-101.616-2.882-37.112-36.74-64.264-61.596-107.876 0 0-1.794-2.522-1.794-2.876-3.97-6.126-7.586-12.258-11.19-17.664 0.004 0.002 132.602-115.53 171.882-183.288zM810 469.998c-24 54.668-88.118 142.626-155.936 176.94-2.322 1.156-5.060 2.714-7.398 5.060-15.588 13.242-17.53 37.028-3.896 52.608 5.458 6.64 11.294 14.044 16.764 21.822 5.058 7.404 5.94 8.614 10.216 15.636 0.796 1.558 6.916 10.862 6.916 10.862 20.278 36.646 17.658 55.856 20 85.076 1.556 21.042-13.786 47.096-20.416 51-3.118 1.558-15.838 5.344-23.25 3-12.87-4.294-17.69-8.116-32.878-22.136-4.292-4.69-10.634-5.672-16.872-7.614-19.894-6.234-27.82 4.118-33.656 23.992-6.234 20.666-13.594 26.506-24.594 35.256-5.87 4.668-28.35 10.5-31.85 10.5-3.116 0-19.41-5.48-24.484-11.334-8.954-10.522-15.844-16.848-21.696-37.518 0 0-4.674-10.52-8.97-14.816-14.012-15.182-32.654-6.74-50 4-17.484 10.824-23.48 10.658-36.334 15.334-7.412 2.344-25.216-2.108-28.334-3.666-6.63-3.904-25.832-25-27.332-48-1.958-30.020 1.060-49.474 22.5-86.5 5.058-8.582 17.030-21.698 22.5-29.5 5.454-7.412 10.138-15.326 15.578-21.56 1.956-2.714 3.912-5.442 5.472-8.176 9.336-18.7-0.060-35.584-18.382-44.93-67.806-34.314-108.278-100.508-152.334-175.334-44.030-74.836-66.666-171.64-66.666-254.666 0-99.378 53.786-157.704 113.032-193.952 63.528-38.966 154.332-51.818 255.268-51.818 101.334 0 192.152 12.852 255.664 51.818 58.85 36.248 110.704 95.904 110.704 195.284-0.002 83.024-45.336 198.664-69.336 253.332zM658 294c17.664 0 32 14.336 32 32s-14.336 32-32 32h-68.192l94.816 142.24c9.792 14.72 5.824 34.56-8.866 44.384-14.688 9.824-34.56 5.824-44.384-8.866l-101.374-152.062-101.376 152.064c-9.792 14.72-29.664 18.69-44.384 8.866s-18.69-29.664-8.866-44.384l94.848-142.242h-68.222c-17.664 0-32-14.336-32-32s14.336-32 32-32h96v-64h-96c-17.664 0-32-14.336-32-32s14.336-32 32-32h96v-96c0-17.664 14.336-32 32-32s32 14.336 32 32v96h96c17.664 0 32 14.336 32 32s-14.336 32-32 32h-96v64h96z" />
<glyph unicode="&#xe614;" glyph-name="wodeyinhangka" d="M998.912 611.334h-975.014c-13.43 0-24.396-10.968-24.396-24.398v-439.962c0-19.436 7.982-37.042 20.704-49.8l0.038 0.074c12.834-12.87 30.478-20.852 49.838-20.852h882.686c19.398 0 37.080 7.982 49.876 20.778 12.758 12.758 20.704 30.366 20.704 49.8v439.964c-0.002 13.43-10.932 24.396-24.436 24.396zM1000.668 147.204c0-6.468 1.76-20.576-11.168-32.704s-25.466-11.166-31.81-11.166l-891.552 0.496c-6.384 0-25.366 1.42-33.47 10.17s-9.508 27.23-9.508 33.7l-0.98 435.634h978.488v-436.13zM704.026 209.98c9.624-9.624 22.904-15.592 37.528-15.592h132.69c14.586 0 27.942 5.968 37.566 15.592l0.074 0.114c9.66 9.624 15.628 22.868 15.628 37.49v86.62c0 14.624-5.968 27.904-15.628 37.528l-0.074 0.076c-9.626 9.624-22.98 15.592-37.566 15.592h-132.69c-14.624 0-27.904-5.968-37.528-15.592l-0.114-0.076c-9.586-9.624-15.592-22.904-15.592-37.528v-86.62c0-14.624 6.006-27.868 15.592-37.49l0.114-0.114zM715.114 350.598c0 1.698 0.684 3.19 1.71 4.322 0.976 1.028 2.492 1.746 4.108 1.746h173.932c1.612 0 3.13-0.718 4.156-1.746 1.076-1.132 1.662-2.626 1.662-4.322v-119.408c0-1.698-0.586-3.136-1.662-4.322-1.026-1.030-2.544-1.746-4.156-1.746h-173.932c-1.616 0-3.13 0.716-4.108 1.746-1.028 1.186-1.71 2.626-1.71 4.322v119.408zM1002.642 802.63c-12.794 12.794-30.476 20.704-49.876 20.704h-882.684c-18.578 0-35.514-7.312-48.234-19.25-0.522-0.484-1.082-0.932-1.642-1.454-12.72-12.796-20.704-30.404-20.704-49.838v-53.344c0-13.542 10.966-24.434 24.396-24.434h975.014c13.504 0 24.434 10.892 24.434 24.434v53.344c0 19.434-7.946 37.042-20.704 49.838zM994.18 703.334h-965.514v52.532c0 10.764 2.528 20.714 6.69 27.89l0.894 1.692c3.968 6.092 9.294 9.884 15.090 9.884h920.17c6.26 0 11.898-4.47 16.022-11.578 4.082-7.176 6.648-17.126 6.648-27.89v-52.53z" />
<glyph unicode="&#xe615;" glyph-name="xiugaimima" d="M152.894 534.124l-0.038-0.074h-0.036l-0.076-0.076c-10.030-10.142-16.244-23.99-16.244-39.186v-504.098c0-15.232 6.25-29.080 16.318-39.148l0.038-0.074h0.038l0.112-0.074c10.068-10.032 23.878-16.244 39.036-16.244h637.598c15.196 0 29.12 6.212 39.186 16.318h0.076c10.066 10.068 16.28 23.916 16.28 39.222v504.098c0 15.27-6.212 29.192-16.28 39.26h-0.076l0.076 0.074c-10.068 10.030-23.99 16.244-39.262 16.244h-61.266v152.85c0 70.886-28.932 135.296-75.564 181.93-46.708 46.634-111.082 75.602-182.006 75.602-70.81 0-135.222-28.968-181.892-75.602-46.67-46.632-75.64-111.044-75.64-181.93v-152.85h-61.23c-15.194 0-29.042-6.212-39.148-16.242zM283.156 710.468c0 60.372 25.656 115.292 66.924 155.044 41.27 39.79 98.192 64.486 160.724 64.486 62.654 0 119.576-24.696 160.844-64.486 41.268-39.75 66.842-94.672 66.842-155.044v-160.102h-455.334v160.102zM816.334 522c2.176 0 29.672 1.306 35.278-7.724 4.722-7.608 4.072-27.568 4.072-29.942v-482.65c0-2.252 1.316-23.934-5.058-31.558-7.3-8.732-30.674-6.61-32.93-6.61h-613.708c-2.214 0-24.322-3.184-33.322 5.482-6.46 6.22-4.666 30.434-4.666 32.686v492.106c0 2.376-0.12 15.546 4.666 22.21 5.5 7.66 21.108 6 23.322 6h622.346z" />
<glyph unicode="&#xe616;" glyph-name="zhaiquanzhuanrang" d="M960.524 410.766c-7.36 0-13.374 5.974-13.374 13.336 0 231.582-188.376 419.986-419.956 419.986-79.418 0-156.658-22.24-223.312-64.236l-29.396-18.546 160.524-59.866c3.362-1.278 5.978-3.7 7.458-6.99 1.514-3.296 1.646-6.854 0.404-10.212-1.952-5.174-6.99-8.704-12.566-8.704-1.546 0-3.088 0.302-4.636 0.876l-186.864 69.712 41.426 195.092c1.278 6.014 6.888 10.584 13.036 10.584 6.316-1.008 9.238-3.022 11.188-6.082 2.018-3.022 2.622-6.484 1.882-10.044l-29.766-140.232 33.126 18.546c67.256 37.698 140.432 56.776 217.498 56.776 246.294 0 446.702-200.366 446.702-446.66-0.002-7.362-6.016-13.336-13.374-13.336zM751.586-61.666c-3.526 0.742-6.418 2.758-8.364 5.778-2.018 3.026-2.622 6.52-1.882 10.084l29.73 140.19-33.12-18.578c-67.228-37.626-140.398-56.738-217.472-56.738-246.328 0-446.696 200.364-446.696 446.662 0 7.354 5.98 13.368 13.374 13.368 7.32 0 13.334-6.014 13.334-13.368 0-231.548 188.41-419.954 419.988-419.954 79.424 0 156.626 22.212 223.318 64.234l29.388 18.51-160.518 59.906c-6.92 2.552-10.414 10.276-7.86 17.2 1.946 5.172 6.954 8.672 12.496 8.672 1.576 0 3.156-0.27 4.638-0.876l186.892-69.712-41.39-195.092c-1.276-6.046-6.886-10.618-13.034-10.618-0.84-0.002-1.846 0.13-2.822 0.332zM496.958 332.008l-64.144-13.476v-102.726h-29.748v96.684c-32.072-6.042-61.82-12.086-87.384-17.2l-6.972 30.21c25.564 4.184 58.566 9.762 94.356 16.27v69.722h-42.298c-15.804 0-29.748-2.79-33.466-6.508-1.394 6.042-6.042 20.454-9.296 27.426 6.972 1.86 13.944 17.662 22.31 37.648 5.114 11.62 16.734 44.622 27.89 83.666h-56.708v28.356h63.68c4.648 18.126 8.832 36.72 11.62 55.312l30.678-6.508c-3.718-15.804-7.902-32.536-12.55-48.804h76.23v-28.354h-84.596c-12.55-41.37-27.424-80.878-42.298-113.88h48.804v71.582h29.748v-71.582h50.2v-28.354h-50.2v-64.144l62.75 11.622 1.394-26.962zM588.060 466.34c-6.042-20.452-11.622-39.508-17.2-56.708h114.81l5.112 1.86 21.848-11.156c-22.778-33-55.312-77.622-84.596-115.738 22.776-16.734 43.226-33 56.708-46.946l-20.454-23.708c-26.494 27.426-80.876 69.722-127.358 97.614l20.452 19.984c15.338-8.828 31.608-19.52 47.41-30.676 20.454 26.028 41.834 55.778 58.566 79.484h-134.794c8.368 23.704 18.126 53.918 27.888 85.988h-70.186v28.818h78.554c5.578 19.058 11.62 38.58 16.268 58.102h-76.694v28.822h84.596c5.578 19.522 10.226 38.114 14.408 55.312l30.678-4.184c-4.182-16.268-8.366-33.466-13.478-51.128h94.358v-28.818h-102.26c-5.578-19.522-10.692-39.044-16.268-58.102h135.26v-28.818h-143.628z" />
<glyph unicode="&#xe617;" glyph-name="chongzhijilu" d="M523.312 452.688h-22.624l-128 128 22.624 22.624 116.688-116.688 116.688 116.688 22.624-22.624zM496 784h32v-320h-32v320zM512 214.176l-504.496 316.272 16.992 27.104 487.504-305.6 487.504 305.6 16.992-27.104zM1024-64h-1024v618.64l175.152 73.44 12.384-29.504-155.536-65.216v-565.36h960v565.36l-155.536 65.216 12.384 29.504 175.152-73.44zM864 448h-32v480h-640v-480h-32v512h704z" />
<glyph unicode="&#xe618;" glyph-name="tixianjilu" d="M628.656 628.688l-116.688 116.688-116.688-116.688-22.624 22.624 128 128h22.624l128-128zM495.968 768h32v-320h-32v320zM512 214.176l-504.496 316.272 16.992 27.104 487.504-305.6 487.504 305.6 16.992-27.104zM1024-64h-1024v618.64l175.152 73.44 12.384-29.504-155.536-65.216v-565.36h960v565.36l-155.536 65.216 12.384 29.504 175.152-73.44zM864 448h-32v480h-640v-480h-32v512h704z" />
<glyph unicode="&#xe619;" glyph-name="zidongtoubiao" d="M512.408 912.814c-257.59 0-466.408-208.816-466.408-466.408 0-257.59 208.818-466.406 466.408-466.406s466.408 208.816 466.408 466.406c0 257.592-208.818 466.408-466.408 466.408zM512.954 0.92c-246.036 0-445.49 199.452-445.49 445.486 0 246.038 199.454 445.49 445.49 445.49s445.492-199.452 445.492-445.49c0-246.034-199.456-445.486-445.492-445.486zM495.626 785.334h22.75v-336.666h-22.75v336.666zM495.584 448.756l13.567 14.117 187.461-180.155-13.567-14.117-187.461 180.155z" />
<glyph unicode="&#xe61a;" glyph-name="tuichu" d="M486.020 960.94h40.968v-491.608h-40.968v491.608zM711.34 878.044v-45.308c149.126-73.552 252.006-227.162 252.006-404.374 0-248.484-202.156-450.64-450.64-450.64s-450.64 202.156-450.64 450.64c0 172.272 97.198 322.198 239.602 398.012v46.070c-165.89-78.974-280.572-248.106-280.572-444.080 0-271.508 220.1-491.608 491.608-491.608 271.51 0 491.608 220.1 491.608 491.608 0 200.796-120.44 373.366-292.972 449.68z" />
<glyph unicode="&#xe61b;" glyph-name="tupianliebiao" d="M87.166 818.056h-56.778c-15.69 0-28.388-12.712-28.388-28.39s12.698-28.388 28.388-28.388h56.778c15.692 0 28.388 12.71 28.388 28.388s-12.696 28.39-28.388 28.39zM314.278 761.278h681.334c15.692 0 28.388 12.71 28.388 28.388s-12.698 28.388-28.388 28.388h-681.334c-15.692 0-28.39-12.71-28.39-28.388s12.698-28.388 28.39-28.388zM87.166 477.388h-56.778c-15.69 0-28.388-12.71-28.388-28.388 0-15.692 12.698-28.388 28.388-28.388h56.778c15.692 0 28.388 12.698 28.388 28.388 0.002 15.678-12.696 28.388-28.388 28.388zM995.612 477.388h-681.334c-15.692 0-28.39-12.71-28.39-28.388 0-15.692 12.698-28.388 28.39-28.388h681.334c15.692 0 28.388 12.698 28.388 28.388 0 15.678-12.698 28.388-28.388 28.388zM87.166 136.722h-56.778c-15.69 0-28.388-12.696-28.388-28.388s12.698-28.388 28.388-28.388h56.778c15.692 0 28.388 12.698 28.388 28.388s-12.696 28.388-28.388 28.388zM995.612 136.722h-681.334c-15.692 0-28.39-12.698-28.39-28.388s12.698-28.388 28.39-28.388h681.334c15.692 0 28.388 12.698 28.388 28.388s-12.698 28.388-28.388 28.388z" />
<glyph unicode="&#xe958;" glyph-name="s" d="M755.315 948.894h-488.677c-53.973 0-97.735-43.762-97.735-97.737v-806.316c0-53.973 43.762-97.735 97.735-97.735h488.675c53.973 0 97.735 43.76 97.735 97.735v806.316c0 53.975-43.762 97.737-97.733 97.737zM521.853-2.226c-32.037 0-58.008 25.973-58.008 58.008 0 32.039 25.973 58.008 58.008 58.008 32.039 0 58.008-25.971 58.008-58.008 0-32.035-25.971-58.008-58.008-58.008zM761.733 184.754h-495.096v666.403h495.096v-666.403z" />
<glyph unicode="&#xe994;" glyph-name="cog" d="M947.427 572.416h-83.888c-4.456 12.392-9.425 24.422-15.012 36.086l59.292 59.412c24.355 24.3 24.3 63.666 0 87.966l-87.966 87.966c-24.3 24.3-63.613 24.3-87.966 0l-59.263-59.292c-11.801 5.589-36.209 10.572-36.209 14.944v83.958c0 34.384-27.863 62.208-62.237 62.208h-124.416c-34.384 0-62.179-27.824-62.179-62.208v-83.956c0-4.375-24.422-9.355-36.153-14.944l-59.374 59.292c-24.3 24.3-63.666 24.3-87.966 0l-87.966-87.966c-24.3-24.3-24.3-63.666 0-87.966l59.292-59.412c-5.589-11.663-10.57-23.693-15.012-36.086h-83.888c-34.386-0.002-62.181-27.826-62.181-62.21v-124.416c0-34.372 27.795-62.208 62.181-62.208h83.888c4.442-12.392 9.423-24.437 15.012-36.209l-59.292-59.292c-24.3-24.3-24.3-63.664 0-87.964l87.966-87.968c24.3-24.3 63.666-24.3 87.966 0l59.318 59.292c11.784-5.589 36.207-10.693 36.207-15.063v-83.837c0-34.372 27.795-62.208 62.179-62.208h124.416c34.372 0 62.237 27.836 62.237 62.208v83.837c0 4.372 24.408 9.476 36.209 15.063l59.265-59.292c24.3-24.3 63.666-24.3 87.966 0l87.966 87.968c24.355 24.3 24.355 63.664 0.053 87.964l-59.345 59.292c5.589 11.772 10.555 23.816 15.012 36.209h83.888c34.372 0 62.237 27.836 62.237 62.208v124.416c0 34.384-27.863 62.208-62.237 62.208zM511.971 261.376c-103.031 0-186.624 83.485-186.624 186.624 0 103.033 83.591 186.624 186.624 186.624s186.624-83.591 186.624-186.624c0-103.139-83.591-186.624-186.624-186.624z" />
<glyph unicode="&#xea0f;" glyph-name="cross" d="M1014.662 137.34c-0.004 0.004-0.008 0.008-0.012 0.010l-310.644 310.65 310.644 310.65c0.004 0.004 0.008 0.006 0.012 0.010 3.344 3.346 5.762 7.254 7.312 11.416 4.246 11.376 1.824 24.682-7.324 33.83l-146.746 146.746c-9.148 9.146-22.45 11.566-33.828 7.32-4.16-1.55-8.070-3.968-11.418-7.31 0-0.004-0.004-0.006-0.008-0.010l-310.648-310.652-310.648 310.65c-0.004 0.004-0.006 0.006-0.010 0.010-3.346 3.342-7.254 5.76-11.414 7.31-11.38 4.248-24.682 1.826-33.83-7.32l-146.748-146.748c-9.148-9.148-11.568-22.452-7.322-33.828 1.552-4.16 3.97-8.072 7.312-11.416 0.004-0.002 0.006-0.006 0.010-0.010l310.65-310.648-310.65-310.652c-0.002-0.004-0.006-0.006-0.008-0.010-3.342-3.346-5.76-7.254-7.314-11.414-4.248-11.376-1.826-24.682 7.322-33.83l146.748-146.746c9.15-9.148 22.452-11.568 33.83-7.322 4.16 1.552 8.070 3.97 11.416 7.312 0.002 0.004 0.006 0.006 0.010 0.010l310.648 310.65 310.648-310.65c0.004-0.002 0.008-0.006 0.012-0.008 3.348-3.344 7.254-5.762 11.414-7.314 11.378-4.246 24.684-1.826 33.828 7.322l146.746 146.748c9.148 9.148 11.57 22.454 7.324 33.83-1.552 4.16-3.97 8.068-7.314 11.414z" />
<glyph unicode="&#xea10;" glyph-name="checkmark" d="M864 832l-480-480-224 224-160-160 384-384 640 640z" />
</font>
</defs>
</svg>
